<svg width="32" height="32" viewBox="0 0 32 32" fill="none" xmlns="http://www.w3.org/2000/svg">
<path d="M18.1175 20.15C18.1175 20.15 30.2325 6.69999 30.075 6.43749C29.9175 6.17499 25.13 4.13499 24.9025 4.09499C24.675 4.05249 23.44 3.94999 23.3375 3.97249C23.235 3.99249 21.6075 3.25749 21.6075 3.25749C21.6075 3.25749 21.6325 2.79249 21.445 2.68749C21.2575 2.58249 18.055 1.09249 17.185 1.06999C16.055 1.04499 2.60999 5.45499 2.20999 5.59999C1.52249 5.84749 2.04749 7.65749 2.28749 9.22499C2.52749 10.7925 4.63999 25.15 5.12249 25.815C5.60499 26.48 14.5925 31.1225 15.3775 31.1225C15.51 31.1225 15.935 31.1875 16.1125 30.6675C16.985 28.0875 17.9875 20.055 18.1175 20.15Z" fill="#E0E0E0"/>
<path d="M3.12 6.36501C4.83249 5.92751 12.94 3.28501 14.095 2.88251C15.3325 2.45251 16.2925 2.02751 17.6 2.23001C18.0125 2.29251 19.0825 2.72501 20.605 3.37001C20.8375 3.47001 20.235 3.83751 20.48 3.94251C20.7675 4.06501 21.9 3.92751 22.195 4.05501C25.21 5.37501 28.4975 6.90001 28.4975 6.90001L15.8425 12.6075L15.34 12.4725L4.765 7.60501L3.12 6.36501Z" fill="white"/>
<path d="M16.05 12.145C16.05 12.145 12.6 10.2225 12.3925 10.05C12.0225 9.7375 11.6275 8.0025 11.67 7.9025C11.8025 7.5925 20.2275 4.415 20.2275 4.415C20.2275 4.415 24.525 4.47 24.795 4.4625C25.4475 4.4425 25.48 4.0625 24.4125 3.9825C23.345 3.9025 21.1175 3.7275 20.995 3.645C20.8625 3.5575 21.4075 3.155 21.54 2.88C21.635 2.68 21.3075 2.485 20.7425 2.9175C20.3475 3.22 19.5825 3.7175 19.5825 3.7175C19.5825 3.7175 18.04 4.175 15.8675 5.0525C13.435 6.0325 10.8875 7.135 10.62 7.1825C10.11 7.2725 7.365 7.6375 6.825 7.6075C6.285 7.5775 2.6125 5.91 2.39 5.8375C1.9875 5.7025 1.7475 6.0625 2.0925 6.3325C2.4375 6.6025 5.9425 8.515 6.6175 8.59C7.2925 8.665 10.5675 8.3275 10.5675 8.3275C10.5675 8.3275 11.025 10.525 11.34 10.75C11.655 10.975 15.4025 12.6875 15.48 12.875C15.6475 13.275 15.4325 30.885 15.6 31.0325C15.7675 31.18 16.3025 30.9475 17.54 30.3025C18.7775 29.6575 25.0275 26.3525 25.4925 26.0425C25.9575 25.7325 26.1625 25.32 26.3175 24.5975C26.4725 23.875 30.1125 7.8425 30.19 7.43C30.2675 7.0175 30.345 6.2425 29.6725 6.3725C29.0025 6.5025 21.05 9.935 21.05 9.935L16.05 12.145Z" fill="#B0B0B0"/>
<path d="M20.665 14.2175C20.695 13.815 25.0425 8.99001 25.3525 8.79501C25.6625 8.60001 29.29 6.73001 29.5 6.60001C29.7125 6.47001 29.825 6.16001 29.2725 6.30751C28.72 6.45501 24.715 8.30251 24.5375 8.44751C24.36 8.59251 23.0925 9.88501 23.0925 9.88501C23.0925 9.88501 22.05 9.53751 21.9275 9.54751C21.62 9.57251 16.3425 11.885 16.13 11.9675C15.9175 12.05 15.7225 12.4725 16.325 12.3425C16.9275 12.2125 21.6275 10.4075 21.8075 10.375C21.9875 10.3425 22.6725 10.6425 22.6725 10.6425C22.6725 10.6425 19.8225 13.785 19.8375 14.2275C19.8625 14.9025 22.125 19.2875 22.06 19.595C21.995 19.905 16.22 29.5475 15.62 30.57C15.3425 31.0425 15.79 31.3275 16.13 30.905C16.47 30.4825 22.37 21.07 22.6875 21.0275C23.005 20.9875 25.405 25.6275 25.535 25.7825C25.665 25.935 26.14 25.665 25.9475 25.3125C25.685 24.8325 23.945 21.485 23.0875 19.7025C21.42 16.24 20.6225 14.7875 20.665 14.2175Z" fill="#858585"/>
<path d="M6.175 22.4275C6.24 22.625 13.18 25.725 13.36 25.66C13.54 25.595 13.385 24.9075 13.21 24.6275C12.995 24.285 12.5575 24.02 12.5575 24.02L12.5425 22.78C12.5425 22.78 13.205 23.3 13.565 23.3325C13.925 23.365 14.0575 22.93 13.825 22.77C13.6175 22.625 13.4425 22.7075 13.4425 22.7075C13.4425 22.7075 13.045 22.425 12.7025 22.1175C12.36 21.81 12.0875 21.4 12.0875 21.4L12.06 20.1325C12.06 20.1325 12.6225 20.5925 12.95 20.625C13.2775 20.6575 13.5075 20.2325 13.195 20.035C13.015 19.92 12.8275 20.0425 12.8275 20.0425C12.8275 20.0425 12.475 19.84 12.215 19.545C11.905 19.195 11.725 18.7675 11.725 18.7675L11.7025 17.8725C11.7025 17.8725 12.15 18.215 12.4775 18.265C12.805 18.315 12.8875 17.98 12.705 17.815C12.525 17.65 12.375 17.7875 12.375 17.7875C12.375 17.7875 11.415 16.82 10.67 15.82C10.1325 15.1 9.75 14.6225 9.75 14.6225L9.7325 13.4625C9.7325 13.4625 9.7475 13.16 9.47 13.095C9.19 13.03 9.225 13.34 9.225 13.34V14.5375C9.225 14.5375 8.1925 15.455 7.635 15.5375C7.0775 15.62 6.995 15.5375 6.995 15.5375C6.995 15.5375 6.94 15.195 6.6325 15.3075C6.3875 15.3975 6.4625 15.785 6.6825 15.9325C7.155 16.2475 7.7475 16.0975 7.7475 16.0975V17.13C7.7475 17.13 7.255 17.59 6.9775 17.5575L6.6975 17.525C6.6975 17.525 6.6725 17.1875 6.3525 17.3125C6.0475 17.4325 6.295 17.995 6.795 18.05C7.2225 18.0975 7.385 18.0675 7.385 18.0675V19.43C7.385 19.43 7.025 19.6275 6.7775 19.6425C6.5325 19.66 6.3175 19.56 6.3175 19.56C6.3175 19.56 6.175 19.165 5.925 19.395C5.69 19.61 5.9575 19.985 6.3175 20.1325C6.6775 20.28 7.055 20.1975 7.055 20.1975V21.8225C7.055 21.8225 6.6125 21.805 6.3825 22.0025C6.1575 22.1975 6.175 22.4275 6.175 22.4275Z" fill="#E93D82"/>
<path d="M8.73499 22.23L10.785 23.115C10.785 23.115 10.6825 21.7075 9.72999 21.4775C8.77999 21.25 8.73499 22.23 8.73499 22.23Z" fill="#E0E0E0"/>
<path d="M8.815 19.6475L10.4 20.2625C10.4 20.2625 10.3425 19.15 9.6025 18.9725C8.865 18.795 8.815 19.6475 8.815 19.6475Z" fill="#E0E0E0"/>
<path d="M8.94249 17.3225L10.255 17.8475C10.255 17.8475 10.32 16.83 9.54999 16.6675C8.89999 16.5275 8.94249 17.3225 8.94249 17.3225Z" fill="#E0E0E0"/>
</svg>
