<svg width="36" height="36" viewBox="0 0 36 36" fill="none" xmlns="http://www.w3.org/2000/svg">
<path d="M20.3822 22.6687C20.3822 22.6687 34.0116 7.5375 33.8344 7.24219C33.6572 6.94687 28.2712 4.65187 28.0153 4.60687C27.7594 4.55906 26.37 4.44375 26.2547 4.46906C26.1394 4.49156 24.3084 3.66469 24.3084 3.66469C24.3084 3.66469 24.3366 3.14156 24.1256 3.02344C23.9147 2.90531 20.3119 1.22906 19.3331 1.20375C18.0619 1.17562 2.93625 6.13687 2.48625 6.3C1.71281 6.57844 2.30344 8.61469 2.57344 10.3781C2.84344 12.1416 5.22 28.2938 5.76281 29.0419C6.30563 29.79 16.4166 35.0128 17.2997 35.0128C17.4487 35.0128 17.9269 35.0859 18.1266 34.5009C19.1081 31.5984 20.2359 22.5619 20.3822 22.6687Z" fill="#E0E0E0"/>
<path d="M3.51 7.16062C5.43656 6.66843 14.5575 3.69562 15.8569 3.24281C17.2491 2.75906 18.3291 2.28093 19.8 2.50874C20.2641 2.57906 21.4678 3.06562 23.1806 3.79124C23.4422 3.90374 22.7644 4.31718 23.04 4.43531C23.3634 4.57312 24.6375 4.41843 24.9694 4.56187C28.3613 6.04687 32.0597 7.76249 32.0597 7.76249L17.8228 14.1834L17.2575 14.0316L5.36063 8.55562L3.51 7.16062Z" fill="white"/>
<path d="M18.0562 13.6631C18.0562 13.6631 14.175 11.5003 13.9416 11.3063C13.5253 10.9547 13.0809 9.00282 13.1288 8.89032C13.2778 8.54157 22.7559 4.96688 22.7559 4.96688C22.7559 4.96688 27.5906 5.02875 27.8944 5.02032C28.6284 4.99782 28.665 4.57032 27.4641 4.48032C26.2631 4.39032 23.7572 4.19344 23.6194 4.10063C23.4703 4.00219 24.0834 3.54938 24.2325 3.24C24.3394 3.015 23.9709 2.79563 23.3353 3.28219C22.8909 3.6225 22.0303 4.18219 22.0303 4.18219C22.0303 4.18219 20.295 4.69688 17.8509 5.68407C15.1144 6.78657 12.2484 8.02688 11.9475 8.08032C11.3738 8.18157 8.28563 8.59219 7.67813 8.55844C7.07063 8.52469 2.93906 6.64875 2.68875 6.56719C2.23594 6.41532 1.96594 6.82032 2.35406 7.12407C2.74219 7.42782 6.68531 9.57938 7.44469 9.66375C8.20406 9.74813 11.8884 9.36844 11.8884 9.36844C11.8884 9.36844 12.4031 11.8406 12.7575 12.0938C13.1119 12.3469 17.3278 14.2734 17.415 14.4844C17.6034 14.9344 17.3616 34.7456 17.55 34.9116C17.7384 35.0775 18.3403 34.8159 19.7325 34.0903C21.1247 33.3647 28.1559 29.6466 28.6791 29.2978C29.2022 28.9491 29.4328 28.485 29.6072 27.6722C29.7816 26.8594 33.8766 8.82282 33.9638 8.35875C34.0509 7.89469 34.1381 7.02282 33.3816 7.16907C32.6278 7.31532 23.6812 11.1769 23.6812 11.1769L18.0562 13.6631Z" fill="#B0B0B0"/>
<path d="M23.2481 15.9947C23.2819 15.5419 28.1728 10.1138 28.5216 9.89438C28.8703 9.67501 32.9513 7.57126 33.1875 7.42501C33.4266 7.27876 33.5531 6.93001 32.9316 7.09595C32.31 7.26188 27.8044 9.34032 27.6047 9.50345C27.405 9.66657 25.9791 11.1206 25.9791 11.1206C25.9791 11.1206 24.8063 10.7297 24.6684 10.7409C24.3225 10.7691 18.3853 13.3706 18.1463 13.4634C17.9072 13.5563 17.6878 14.0316 18.3656 13.8853C19.0434 13.7391 24.3309 11.7084 24.5334 11.6719C24.7359 11.6353 25.5066 11.9728 25.5066 11.9728C25.5066 11.9728 22.3003 15.5081 22.3172 16.0059C22.3453 16.7653 24.8906 21.6984 24.8175 22.0444C24.7444 22.3931 18.2475 33.2409 17.5725 34.3913C17.2603 34.9228 17.7638 35.2434 18.1463 34.7681C18.5288 34.2928 25.1663 23.7038 25.5234 23.6559C25.8806 23.6109 28.5806 28.8309 28.7269 29.0053C28.8731 29.1769 29.4075 28.8731 29.1909 28.4766C28.8956 27.9366 26.9381 24.1706 25.9734 22.1653C24.0975 18.27 23.2003 16.6359 23.2481 15.9947Z" fill="#858585"/>
<path d="M6.94688 25.2309C7.02 25.4531 14.8275 28.9406 15.03 28.8675C15.2325 28.7944 15.0581 28.0209 14.8613 27.7059C14.6194 27.3206 14.1272 27.0225 14.1272 27.0225L14.1103 25.6275C14.1103 25.6275 14.8556 26.2125 15.2606 26.2491C15.6656 26.2856 15.8147 25.7963 15.5531 25.6163C15.3197 25.4531 15.1228 25.5459 15.1228 25.5459C15.1228 25.5459 14.6756 25.2281 14.2903 24.8822C13.905 24.5363 13.5984 24.075 13.5984 24.075L13.5675 22.6491C13.5675 22.6491 14.2003 23.1666 14.5688 23.2031C14.9372 23.2397 15.1959 22.7616 14.8444 22.5394C14.6419 22.41 14.4309 22.5478 14.4309 22.5478C14.4309 22.5478 14.0344 22.32 13.7419 21.9881C13.3931 21.5944 13.1906 21.1134 13.1906 21.1134L13.1653 20.1066C13.1653 20.1066 13.6688 20.4919 14.0372 20.5481C14.4056 20.6044 14.4984 20.2275 14.2931 20.0419C14.0906 19.8563 13.9219 20.0109 13.9219 20.0109C13.9219 20.0109 12.8419 18.9225 12.0038 17.7975C11.3991 16.9875 10.9688 16.4503 10.9688 16.4503L10.9491 15.1453C10.9491 15.1453 10.9659 14.805 10.6538 14.7319C10.3388 14.6588 10.3781 15.0075 10.3781 15.0075V16.3547C10.3781 16.3547 9.21656 17.3869 8.58938 17.4797C7.96219 17.5725 7.86938 17.4797 7.86938 17.4797C7.86938 17.4797 7.8075 17.0944 7.46156 17.2209C7.18594 17.3222 7.27031 17.7581 7.51781 17.9241C8.04938 18.2784 8.71594 18.1097 8.71594 18.1097V19.2713C8.71594 19.2713 8.16188 19.7888 7.84969 19.7522L7.53469 19.7156C7.53469 19.7156 7.50656 19.3359 7.14656 19.4766C6.80344 19.6116 7.08188 20.2444 7.64438 20.3063C8.12531 20.3597 8.30813 20.3259 8.30813 20.3259V21.8588C8.30813 21.8588 7.90313 22.0809 7.62469 22.0978C7.34906 22.1175 7.10719 22.005 7.10719 22.005C7.10719 22.005 6.94688 21.5606 6.66563 21.8194C6.40125 22.0613 6.70219 22.4831 7.10719 22.6491C7.51219 22.815 7.93688 22.7222 7.93688 22.7222V24.5503C7.93688 24.5503 7.43906 24.5306 7.18031 24.7528C6.92719 24.9722 6.94688 25.2309 6.94688 25.2309Z" fill="#FE2A28"/>
<path d="M9.82687 25.0087L12.1331 26.0044C12.1331 26.0044 12.0178 24.4209 10.9462 24.1622C9.8775 23.9062 9.82687 25.0087 9.82687 25.0087Z" fill="#E0E0E0"/>
<path d="M9.91687 22.1034L11.7 22.7953C11.7 22.7953 11.6353 21.5438 10.8028 21.3441C9.97312 21.1444 9.91687 22.1034 9.91687 22.1034Z" fill="#E0E0E0"/>
<path d="M10.0603 19.4878L11.5369 20.0784C11.5369 20.0784 11.61 18.9337 10.7438 18.7509C10.0125 18.5934 10.0603 19.4878 10.0603 19.4878Z" fill="#E0E0E0"/>
</svg>
